<svg width="159" height="149" viewBox="0 0 159 149" fill="none" xmlns="http://www.w3.org/2000/svg">
<path d="M0 0H9V9H0V0Z" fill="black" fill-opacity="0.05"/>
<path d="M30 0H39V9H30V0Z" fill="black" fill-opacity="0.05"/>
<path d="M60 0H69V9H60V0Z" fill="black" fill-opacity="0.05"/>
<path d="M90 0H99V9H90V0Z" fill="black" fill-opacity="0.05"/>
<path d="M120 0H129V9H120V0Z" fill="black" fill-opacity="0.05"/>
<path d="M150 0H159V9H150V0Z" fill="black" fill-opacity="0.05"/>
<path d="M0 35H9V44H0V35Z" fill="black" fill-opacity="0.05"/>
<path d="M30 35H39V44H30V35Z" fill="black" fill-opacity="0.05"/>
<path d="M60 35H69V44H60V35Z" fill="black" fill-opacity="0.05"/>
<path d="M90 35H99V44H90V35Z" fill="black" fill-opacity="0.05"/>
<path d="M120 35H129V44H120V35Z" fill="black" fill-opacity="0.05"/>
<path d="M150 35H159V44H150V35Z" fill="black" fill-opacity="0.05"/>
<path d="M0 70H9V79H0V70Z" fill="black" fill-opacity="0.05"/>
<path d="M30 70H39V79H30V70Z" fill="black" fill-opacity="0.05"/>
<path d="M60 70H69V79H60V70Z" fill="black" fill-opacity="0.05"/>
<path d="M90 70H99V79H90V70Z" fill="black" fill-opacity="0.05"/>
<path d="M120 70H129V79H120V70Z" fill="black" fill-opacity="0.05"/>
<path d="M150 70H159V79H150V70Z" fill="black" fill-opacity="0.05"/>
<path d="M0 105H9V114H0V105Z" fill="black" fill-opacity="0.05"/>
<path d="M30 105H39V114H30V105Z" fill="black" fill-opacity="0.05"/>
<path d="M60 105H69V114H60V105Z" fill="black" fill-opacity="0.05"/>
<path d="M90 105H99V114H90V105Z" fill="black" fill-opacity="0.05"/>
<path d="M120 105H129V114H120V105Z" fill="black" fill-opacity="0.05"/>
<path d="M150 105H159V114H150V105Z" fill="black" fill-opacity="0.05"/>
<path d="M0 140H9V149H0V140Z" fill="black" fill-opacity="0.05"/>
<path d="M30 140H39V149H30V140Z" fill="black" fill-opacity="0.05"/>
<path d="M60 140H69V149H60V140Z" fill="black" fill-opacity="0.05"/>
<path d="M90 140H99V149H90V140Z" fill="black" fill-opacity="0.05"/>
<path d="M120 140H129V149H120V140Z" fill="black" fill-opacity="0.05"/>
<path d="M150 140H159V149H150V140Z" fill="black" fill-opacity="0.05"/>
</svg>
