<svg width="65" height="65" viewBox="0 0 65 65" fill="none" xmlns="http://www.w3.org/2000/svg">
<circle cx="32.5" cy="32.5" r="32.5" fill="#F2F2F2"/>
<path fill-rule="evenodd" clip-rule="evenodd" d="M28.5 17L25.755 20H21C19.35 20 18 21.35 18 23V41C18 42.65 19.35 44 21 44H45C46.65 44 48 42.65 48 41V23C48 21.35 46.65 20 45 20H40.245L37.5 17H28.5Z" fill="#B3B3B3"/>
<path fill-rule="evenodd" clip-rule="evenodd" d="M33.0004 37.454C29.9895 37.454 27.5459 35.0104 27.5459 31.9995C27.5459 28.9886 29.9895 26.5449 33.0004 26.5449C36.0114 26.5449 38.455 28.9886 38.455 31.9995C38.455 35.0104 36.0114 37.454 33.0004 37.454Z" fill="#F2F2F2"/>
</svg>
