<svg width="25" height="24" viewBox="0 0 25 24" fill="none" xmlns="http://www.w3.org/2000/svg">
<path d="M17.0303 15.4697C16.7374 15.1768 16.2626 15.1768 15.9697 15.4697C15.6768 15.7626 15.6768 16.2374 15.9697 16.5303L17.0303 15.4697ZM22.9697 23.5303C23.2626 23.8232 23.7374 23.8232 24.0303 23.5303C24.3232 23.2374 24.3232 22.7626 24.0303 22.4697L22.9697 23.5303ZM18.25 10C18.25 14.5563 14.5563 18.25 10 18.25V19.75C15.3848 19.75 19.75 15.3848 19.75 10H18.25ZM10 18.25C5.44365 18.25 1.75 14.5563 1.75 10H0.25C0.25 15.3848 4.61522 19.75 10 19.75V18.25ZM1.75 10C1.75 5.44365 5.44365 1.75 10 1.75V0.25C4.61522 0.25 0.25 4.61522 0.25 10H1.75ZM10 1.75C14.5563 1.75 18.25 5.44365 18.25 10H19.75C19.75 4.61522 15.3848 0.25 10 0.25V1.75ZM15.9697 16.5303C15.9777 16.5383 15.9857 16.5463 15.9936 16.5543C16.0016 16.5623 16.0096 16.5702 16.0175 16.5781C16.0254 16.5861 16.0333 16.594 16.0412 16.6019C16.0491 16.6098 16.057 16.6176 16.0648 16.6255C16.0727 16.6333 16.0805 16.6411 16.0883 16.649C16.0961 16.6568 16.1039 16.6646 16.1117 16.6723C16.1194 16.6801 16.1272 16.6878 16.1349 16.6956C16.1426 16.7033 16.1503 16.711 16.158 16.7187C16.1657 16.7264 16.1734 16.7341 16.1811 16.7417C16.1887 16.7494 16.1963 16.757 16.2039 16.7646C16.2116 16.7722 16.2192 16.7798 16.2267 16.7874C16.2343 16.795 16.2419 16.8025 16.2494 16.81C16.2569 16.8176 16.2644 16.8251 16.2719 16.8326C16.2794 16.8401 16.2869 16.8476 16.2944 16.855C16.3018 16.8625 16.3093 16.8699 16.3167 16.8773C16.3241 16.8848 16.3315 16.8922 16.3389 16.8995C16.3463 16.9069 16.3536 16.9143 16.361 16.9216C16.3683 16.929 16.3756 16.9363 16.3829 16.9436C16.3903 16.9509 16.3975 16.9582 16.4048 16.9655C16.4121 16.9727 16.4193 16.98 16.4266 16.9872C16.4338 16.9945 16.441 17.0017 16.4482 17.0089C16.4554 17.0161 16.4626 17.0232 16.4697 17.0304C16.4769 17.0375 16.484 17.0447 16.4911 17.0518C16.4983 17.0589 16.5054 17.066 16.5124 17.0731C16.5195 17.0802 16.5266 17.0873 16.5336 17.0943C16.5407 17.1014 16.5477 17.1084 16.5547 17.1154C16.5617 17.1224 16.5687 17.1294 16.5757 17.1364C16.5827 17.1433 16.5896 17.1503 16.5966 17.1572C16.6035 17.1642 16.6104 17.1711 16.6173 17.178C16.6242 17.1849 16.6311 17.1918 16.638 17.1987C16.6449 17.2055 16.6517 17.2124 16.6585 17.2192C16.6654 17.226 16.6722 17.2328 16.679 17.2396C16.6858 17.2464 16.6925 17.2532 16.6993 17.26C16.7061 17.2667 16.7128 17.2735 16.7195 17.2802C16.7263 17.2869 16.733 17.2936 16.7397 17.3003C16.7463 17.307 16.753 17.3137 16.7597 17.3203C16.7663 17.327 16.773 17.3336 16.7796 17.3403C16.7862 17.3469 16.7928 17.3535 16.7994 17.3601C16.806 17.3666 16.8126 17.3732 16.8191 17.3798C16.8257 17.3863 16.8322 17.3929 16.8387 17.3994C16.8452 17.4059 16.8517 17.4124 16.8582 17.4189C16.8647 17.4254 16.8712 17.4318 16.8776 17.4383C16.8841 17.4447 16.8905 17.4511 16.8969 17.4576C16.9033 17.464 16.9097 17.4704 16.9161 17.4768C16.9225 17.4831 16.9288 17.4895 16.9352 17.4959C16.9415 17.5022 16.9479 17.5085 16.9542 17.5149C16.9605 17.5212 16.9668 17.5275 16.9731 17.5338C16.9794 17.54 16.9856 17.5463 16.9919 17.5525C16.9981 17.5588 17.0044 17.565 17.0106 17.5712C17.0168 17.5775 17.023 17.5837 17.0292 17.5898C17.0354 17.596 17.0415 17.6022 17.0477 17.6084C17.0538 17.6145 17.06 17.6206 17.0661 17.6268C17.0722 17.6329 17.0783 17.639 17.0844 17.6451C17.0905 17.6512 17.0966 17.6572 17.1026 17.6633C17.1087 17.6693 17.1147 17.6754 17.1207 17.6814C17.1268 17.6874 17.1328 17.6934 17.1388 17.6994C17.1447 17.7054 17.1507 17.7114 17.1567 17.7173C17.1626 17.7233 17.1686 17.7292 17.1745 17.7352C17.1804 17.7411 17.1864 17.747 17.1923 17.7529C17.1982 17.7588 17.204 17.7647 17.2099 17.7706C17.2158 17.7764 17.2216 17.7823 17.2275 17.7881C17.2333 17.794 17.2391 17.7998 17.2449 17.8056C17.2507 17.8114 17.2565 17.8172 17.2623 17.8229C17.2681 17.8287 17.2738 17.8345 17.2796 17.8402C17.2853 17.846 17.291 17.8517 17.2967 17.8574C17.3025 17.8631 17.3082 17.8688 17.3138 17.8745C17.3195 17.8802 17.3252 17.8859 17.3308 17.8915C17.3365 17.8972 17.3421 17.9028 17.3478 17.9084C17.3534 17.914 17.359 17.9197 17.3646 17.9252C17.3702 17.9308 17.3758 17.9364 17.3813 17.942C17.3869 17.9476 17.3924 17.9531 17.398 17.9586C17.4035 17.9642 17.409 17.9697 17.4145 17.9752C17.42 17.9807 17.4255 17.9862 17.431 17.9917C17.4365 17.9972 17.442 18.0026 17.4474 18.0081C17.4528 18.0135 17.4583 18.0189 17.4637 18.0244C17.4691 18.0298 17.4745 18.0352 17.4799 18.0406C17.4853 18.046 17.4907 18.0513 17.496 18.0567C17.5014 18.0621 17.5068 18.0674 17.5121 18.0728C17.5174 18.0781 17.5228 18.0834 17.5281 18.0887C17.5334 18.094 17.5387 18.0993 17.5439 18.1046C17.5492 18.1099 17.5545 18.1151 17.5597 18.1204C17.565 18.1256 17.5702 18.1309 17.5754 18.1361C17.5807 18.1413 17.5859 18.1465 17.5911 18.1517C17.5963 18.1569 17.6014 18.1621 17.6066 18.1673C17.6118 18.1724 17.6169 18.1776 17.6221 18.1827C17.6272 18.1879 17.6324 18.193 17.6375 18.1981C17.6426 18.2032 17.6477 18.2083 17.6528 18.2134C17.6579 18.2185 17.6629 18.2236 17.668 18.2287C17.6731 18.2337 17.6781 18.2388 17.6831 18.2438C17.6882 18.2488 17.6932 18.2539 17.6982 18.2589C17.7032 18.2639 17.7082 18.2689 17.7132 18.2738C17.7182 18.2788 17.7231 18.2838 17.7281 18.2888C17.7331 18.2937 17.738 18.2987 17.7429 18.3036C17.7479 18.3085 17.7528 18.3134 17.7577 18.3183C17.7626 18.3232 17.7675 18.3281 17.7724 18.333C17.7772 18.3379 17.7821 18.3428 17.787 18.3476C17.7918 18.3525 17.7966 18.3573 17.8015 18.3621C17.8063 18.367 17.8111 18.3718 17.8159 18.3766C17.8207 18.3814 17.8255 18.3862 17.8303 18.391C17.8351 18.3957 17.8398 18.4005 17.8446 18.4053C17.8494 18.41 17.8541 18.4148 17.8588 18.4195C17.8636 18.4242 17.8683 18.4289 17.873 18.4336C17.8777 18.4383 17.8824 18.443 17.8871 18.4477C17.8917 18.4524 17.8964 18.4571 17.9011 18.4617C17.9057 18.4664 17.9104 18.471 17.915 18.4757C17.9196 18.4803 17.9242 18.4849 17.9289 18.4895C17.9335 18.4941 17.9381 18.4987 17.9426 18.5033C17.9472 18.5079 17.9518 18.5125 17.9564 18.517C17.9609 18.5216 17.9655 18.5261 17.97 18.5307C17.9746 18.5352 17.9791 18.5397 17.9836 18.5443C17.9881 18.5488 17.9926 18.5533 17.9971 18.5578C18.0016 18.5623 18.0061 18.5667 18.0106 18.5712C18.015 18.5757 18.0195 18.5801 18.0239 18.5846C18.0284 18.589 18.0328 18.5935 18.0372 18.5979C18.0417 18.6023 18.0461 18.6067 18.0505 18.6111C18.0549 18.6155 18.0593 18.6199 18.0637 18.6243C18.068 18.6287 18.0724 18.6331 18.0768 18.6374C18.0811 18.6418 18.0855 18.6461 18.0898 18.6505C18.0941 18.6548 18.0985 18.6591 18.1028 18.6634C18.1071 18.6677 18.1114 18.6721 18.1157 18.6763C18.12 18.6806 18.1243 18.6849 18.1285 18.6892C18.1328 18.6935 18.1371 18.6977 18.1413 18.702C18.1456 18.7062 18.1498 18.7105 18.154 18.7147C18.1583 18.7189 18.1625 18.7231 18.1667 18.7273C18.1709 18.7316 18.1751 18.7358 18.1793 18.7399C18.1835 18.7441 18.1876 18.7483 18.1918 18.7525C18.196 18.7566 18.2001 18.7608 18.2043 18.7649C18.2084 18.7691 18.2126 18.7732 18.2167 18.7773C18.2208 18.7815 18.2249 18.7856 18.229 18.7897C18.2331 18.7938 18.2372 18.7979 18.2413 18.802C18.2454 18.8061 18.2495 18.8101 18.2535 18.8142C18.2576 18.8183 18.2617 18.8223 18.2657 18.8264C18.2698 18.8304 18.2738 18.8345 18.2778 18.8385C18.2819 18.8425 18.2859 18.8465 18.2899 18.8505C18.2939 18.8545 18.2979 18.8585 18.3019 18.8625C18.3059 18.8665 18.3098 18.8705 18.3138 18.8745C18.3178 18.8784 18.3217 18.8824 18.3257 18.8863C18.3296 18.8903 18.3336 18.8942 18.3375 18.8982C18.3414 18.9021 18.3454 18.906 18.3493 18.9099C18.3532 18.9138 18.3571 18.9178 18.361 18.9216C18.3649 18.9255 18.3688 18.9294 18.3726 18.9333C18.3765 18.9372 18.3804 18.941 18.3842 18.9449C18.3881 18.9488 18.392 18.9526 18.3958 18.9565C18.3996 18.9603 18.4035 18.9641 18.4073 18.9679C18.4111 18.9718 18.4149 18.9756 18.4187 18.9794C18.4225 18.9832 18.4263 18.987 18.4301 18.9908C18.4339 18.9946 18.4377 18.9983 18.4415 19.0021C18.4452 19.0059 18.449 19.0096 18.4527 19.0134C18.4565 19.0171 18.4602 19.0209 18.464 19.0246C18.4677 19.0284 18.4714 19.0321 18.4752 19.0358C18.4789 19.0395 18.4826 19.0432 18.4863 19.0469C18.49 19.0506 18.4937 19.0543 18.4974 19.058C18.5011 19.0617 18.5047 19.0654 18.5084 19.0691C18.5121 19.0727 18.5157 19.0764 18.5194 19.08C18.523 19.0837 18.5267 19.0873 18.5303 19.091C18.534 19.0946 18.5376 19.0982 18.5412 19.1019C18.5448 19.1055 18.5484 19.1091 18.5521 19.1127C18.5557 19.1163 18.5593 19.1199 18.5628 19.1235C18.5664 19.1271 18.57 19.1307 18.5736 19.1343C18.5772 19.1378 18.5807 19.1414 18.5843 19.145C18.5879 19.1485 18.5914 19.1521 18.5949 19.1556C18.5985 19.1592 18.602 19.1627 18.6056 19.1662C18.6091 19.1698 18.6126 19.1733 18.6161 19.1768C18.6196 19.1803 18.6231 19.1838 18.6266 19.1873C18.6301 19.1908 18.6336 19.1943 18.6371 19.1978C18.6406 19.2013 18.6441 19.2048 18.6476 19.2082C18.651 19.2117 18.6545 19.2152 18.658 19.2186C18.6614 19.2221 18.6649 19.2255 18.6683 19.229C18.6718 19.2324 18.6752 19.2358 18.6786 19.2393C18.682 19.2427 18.6855 19.2461 18.6889 19.2495C18.6923 19.253 18.6957 19.2564 18.6991 19.2598C18.7025 19.2632 18.7059 19.2666 18.7093 19.27C18.7127 19.2733 18.7161 19.2767 18.7194 19.2801C18.7228 19.2835 18.7262 19.2869 18.7296 19.2902C18.7329 19.2936 18.7363 19.2969 18.7396 19.3003C18.743 19.3036 18.7463 19.307 18.7497 19.3103C18.753 19.3137 18.7563 19.317 18.7596 19.3203C18.763 19.3236 18.7663 19.3269 18.7696 19.3303C18.7729 19.3336 18.7762 19.3369 18.7795 19.3402C18.7828 19.3435 18.7861 19.3468 18.7894 19.3501C18.7927 19.3533 18.796 19.3566 18.7992 19.3599C18.8025 19.3632 18.8058 19.3665 18.8091 19.3697C18.8123 19.373 18.8156 19.3762 18.8188 19.3795C18.8221 19.3827 18.8253 19.386 18.8286 19.3892C18.8318 19.3925 18.835 19.3957 18.8383 19.3989C18.8415 19.4022 18.8447 19.4054 18.8479 19.4086C18.8512 19.4118 18.8544 19.415 18.8576 19.4182C18.8608 19.4215 18.864 19.4247 18.8672 19.4279C18.8704 19.4311 18.8736 19.4342 18.8768 19.4374C18.88 19.4406 18.8831 19.4438 18.8863 19.447C18.8895 19.4501 18.8927 19.4533 18.8958 19.4565C18.899 19.4597 18.9022 19.4628 18.9053 19.466C18.9085 19.4691 18.9116 19.4723 18.9148 19.4754C18.9179 19.4786 18.921 19.4817 18.9242 19.4848C18.9273 19.488 18.9304 19.4911 18.9336 19.4942C18.9367 19.4974 18.9398 19.5005 18.9429 19.5036C18.946 19.5067 18.9492 19.5098 18.9523 19.5129C18.9554 19.516 18.9585 19.5191 18.9616 19.5222C18.9647 19.5253 18.9678 19.5284 18.9708 19.5315C18.9739 19.5346 18.977 19.5377 18.9801 19.5408C18.9832 19.5438 18.9863 19.5469 18.9893 19.55C18.9924 19.5531 18.9955 19.5561 18.9985 19.5592C19.0016 19.5622 19.0046 19.5653 19.0077 19.5684C19.0107 19.5714 19.0138 19.5745 19.0168 19.5775C19.0199 19.5805 19.0229 19.5836 19.026 19.5866C19.029 19.5897 19.032 19.5927 19.0351 19.5957C19.0381 19.5988 19.0411 19.6018 19.0441 19.6048C19.0472 19.6078 19.0502 19.6108 19.0532 19.6139C19.0562 19.6169 19.0592 19.6199 19.0622 19.6229C19.0652 19.6259 19.0682 19.6289 19.0712 19.6319C19.0742 19.6349 19.0772 19.6379 19.0802 19.6409C19.0832 19.6439 19.0862 19.6469 19.0892 19.6498C19.0922 19.6528 19.0951 19.6558 19.0981 19.6588C19.1011 19.6618 19.1041 19.6647 19.107 19.6677C19.11 19.6707 19.113 19.6736 19.1159 19.6766C19.1189 19.6796 19.1219 19.6825 19.1248 19.6855C19.1278 19.6884 19.1307 19.6914 19.1337 19.6944C19.1366 19.6973 19.1396 19.7003 19.1425 19.7032C19.1455 19.7061 19.1484 19.7091 19.1514 19.712C19.1543 19.715 19.1572 19.7179 19.1602 19.7208C19.1631 19.7238 19.166 19.7267 19.169 19.7296C19.1719 19.7326 19.1748 19.7355 19.1777 19.7384C19.1807 19.7413 19.1836 19.7443 19.1865 19.7472C19.1894 19.7501 19.1923 19.753 19.1953 19.7559C19.1982 19.7588 19.2011 19.7617 19.204 19.7646C19.2069 19.7676 19.2098 19.7705 19.2127 19.7734C19.2156 19.7763 19.2185 19.7792 19.2214 19.7821C19.2243 19.785 19.2272 19.7879 19.2301 19.7907C19.233 19.7936 19.2359 19.7965 19.2388 19.7994C19.2416 19.8023 19.2445 19.8052 19.2474 19.8081C19.2503 19.811 19.2532 19.8139 19.2561 19.8167C19.259 19.8196 19.2618 19.8225 19.2647 19.8254C19.2676 19.8282 19.2705 19.8311 19.2733 19.834C19.2762 19.8369 19.2791 19.8397 19.2819 19.8426C19.2848 19.8455 19.2877 19.8483 19.2906 19.8512C19.2934 19.8541 19.2963 19.8569 19.2991 19.8598C19.302 19.8627 19.3049 19.8655 19.3077 19.8684C19.3106 19.8713 19.3134 19.8741 19.3163 19.877C19.3192 19.8798 19.322 19.8827 19.3249 19.8855C19.3277 19.8884 19.3306 19.8912 19.3334 19.8941C19.3363 19.8969 19.3391 19.8998 19.342 19.9026C19.3448 19.9055 19.3477 19.9083 19.3505 19.9112C19.3534 19.914 19.3562 19.9169 19.3591 19.9197C19.3619 19.9226 19.3648 19.9254 19.3676 19.9283C19.3704 19.9311 19.3733 19.9339 19.3761 19.9368C19.379 19.9396 19.3818 19.9425 19.3846 19.9453C19.3875 19.9481 19.3903 19.951 19.3932 19.9538C19.396 19.9567 19.3988 19.9595 19.4017 19.9623C19.4045 19.9652 19.4073 19.968 19.4102 19.9708C19.413 19.9737 19.4159 19.9765 19.4187 19.9793C19.4215 19.9822 19.4244 19.985 19.4272 19.9878C19.43 19.9907 19.4329 19.9935 19.4357 19.9963C19.4385 19.9992 19.4414 20.002 19.4442 20.0048C19.447 20.0077 19.4498 20.0105 19.4527 20.0133C19.4555 20.0162 19.4583 20.019 19.4612 20.0218C19.464 20.0247 19.4668 20.0275 19.4697 20.0303C19.4725 20.0332 19.4753 20.036 19.4782 20.0388C19.481 20.0417 19.4838 20.0445 19.4867 20.0473C19.4895 20.0502 19.4923 20.053 19.4952 20.0558C19.498 20.0586 19.5008 20.0615 19.5037 20.0643C19.5065 20.0671 19.5093 20.07 19.5122 20.0728C19.515 20.0756 19.5178 20.0785 19.5207 20.0813C19.5235 20.0841 19.5263 20.087 19.5292 20.0898C19.532 20.0927 19.5348 20.0955 19.5377 20.0983C19.5405 20.1012 19.5433 20.104 19.5462 20.1068C19.549 20.1097 19.5519 20.1125 19.5547 20.1154C19.5575 20.1182 19.5604 20.121 19.5632 20.1239C19.5661 20.1267 19.5689 20.1296 19.5717 20.1324C19.5746 20.1352 19.5774 20.1381 19.5803 20.1409C19.5831 20.1438 19.586 20.1466 19.5888 20.1495C19.5917 20.1523 19.5945 20.1552 19.5974 20.158C19.6002 20.1609 19.6031 20.1637 19.6059 20.1666C19.6088 20.1694 19.6116 20.1723 19.6145 20.1751C19.6173 20.178 19.6202 20.1808 19.623 20.1837C19.6259 20.1866 19.6287 20.1894 19.6316 20.1923C19.6345 20.1951 19.6373 20.198 19.6402 20.2009C19.6431 20.2037 19.6459 20.2066 19.6488 20.2094C19.6517 20.2123 19.6545 20.2152 19.6574 20.2181C19.6603 20.2209 19.6631 20.2238 19.666 20.2267C19.6689 20.2295 19.6718 20.2324 19.6746 20.2353C19.6775 20.2382 19.6804 20.241 19.6833 20.2439C19.6861 20.2468 19.689 20.2497 19.6919 20.2526C19.6948 20.2555 19.6977 20.2584 19.7006 20.2612C19.7035 20.2641 19.7064 20.267 19.7093 20.2699C19.7121 20.2728 19.715 20.2757 19.7179 20.2786C19.7208 20.2815 19.7237 20.2844 19.7266 20.2873C19.7295 20.2902 19.7324 20.2931 19.7354 20.296C19.7383 20.2989 19.7412 20.3018 19.7441 20.3047C19.747 20.3077 19.7499 20.3106 19.7528 20.3135C19.7557 20.3164 19.7587 20.3193 19.7616 20.3223C19.7645 20.3252 19.7674 20.3281 19.7704 20.331C19.7733 20.334 19.7762 20.3369 19.7792 20.3398C19.7821 20.3428 19.785 20.3457 19.788 20.3486C19.7909 20.3516 19.7939 20.3545 19.7968 20.3575C19.7997 20.3604 19.8027 20.3634 19.8056 20.3663C19.8086 20.3693 19.8116 20.3722 19.8145 20.3752C19.8175 20.3781 19.8204 20.3811 19.8234 20.3841C19.8264 20.387 19.8293 20.39 19.8323 20.393C19.8353 20.3959 19.8382 20.3989 19.8412 20.4019C19.8442 20.4049 19.8472 20.4078 19.8502 20.4108C19.8531 20.4138 19.8561 20.4168 19.8591 20.4198C19.8621 20.4228 19.8651 20.4258 19.8681 20.4288C19.8711 20.4318 19.8741 20.4348 19.8771 20.4378C19.8801 20.4408 19.8831 20.4438 19.8861 20.4468C19.8892 20.4498 19.8922 20.4528 19.8952 20.4559C19.8982 20.4589 19.9012 20.4619 19.9043 20.4649C19.9073 20.468 19.9103 20.471 19.9134 20.474C19.9164 20.4771 19.9195 20.4801 19.9225 20.4832C19.9255 20.4862 19.9286 20.4893 19.9316 20.4923C19.9347 20.4954 19.9378 20.4984 19.9408 20.5015C19.9439 20.5045 19.9469 20.5076 19.95 20.5107C19.9531 20.5137 19.9562 20.5168 19.9592 20.5199C19.9623 20.523 19.9654 20.5261 19.9685 20.5292C19.9716 20.5322 19.9747 20.5353 19.9778 20.5384C19.9809 20.5415 19.984 20.5446 19.9871 20.5477C19.9902 20.5508 19.9933 20.554 19.9964 20.5571C19.9995 20.5602 20.0026 20.5633 20.0058 20.5664C20.0089 20.5696 20.012 20.5727 20.0152 20.5758C20.0183 20.579 20.0214 20.5821 20.0246 20.5852C20.0277 20.5884 20.0309 20.5915 20.034 20.5947C20.0372 20.5978 20.0403 20.601 20.0435 20.6042C20.0467 20.6073 20.0499 20.6105 20.053 20.6137C20.0562 20.6169 20.0594 20.62 20.0626 20.6232C20.0658 20.6264 20.0689 20.6296 20.0721 20.6328C20.0753 20.636 20.0785 20.6392 20.0818 20.6424C20.085 20.6456 20.0882 20.6488 20.0914 20.6521C20.0946 20.6553 20.0978 20.6585 20.1011 20.6617C20.1043 20.665 20.1075 20.6682 20.1108 20.6714C20.114 20.6747 20.1173 20.6779 20.1205 20.6812C20.1238 20.6844 20.127 20.6877 20.1303 20.6909C20.1335 20.6942 20.1368 20.6975 20.1401 20.7008C20.1434 20.704 20.1467 20.7073 20.1499 20.7106C20.1532 20.7139 20.1565 20.7172 20.1598 20.7205C20.1631 20.7238 20.1664 20.7271 20.1697 20.7304C20.1731 20.7337 20.1764 20.737 20.1797 20.7404C20.183 20.7437 20.1863 20.747 20.1897 20.7503C20.193 20.7537 20.1964 20.757 20.1997 20.7604C20.2031 20.7637 20.2064 20.7671 20.2098 20.7704C20.2131 20.7738 20.2165 20.7772 20.2199 20.7806C20.2233 20.7839 20.2267 20.7873 20.23 20.7907C20.2334 20.7941 20.2368 20.7975 20.2402 20.8009C20.2436 20.8043 20.247 20.8077 20.2505 20.8111C20.2539 20.8145 20.2573 20.818 20.2607 20.8214C20.2642 20.8248 20.2676 20.8282 20.271 20.8317C20.2745 20.8351 20.2779 20.8386 20.2814 20.842C20.2848 20.8455 20.2883 20.849 20.2918 20.8524C20.2952 20.8559 20.2987 20.8594 20.3022 20.8629C20.3057 20.8664 20.3092 20.8699 20.3127 20.8734C20.3162 20.8769 20.3197 20.8804 20.3232 20.8839C20.3267 20.8874 20.3302 20.8909 20.3338 20.8944C20.3373 20.898 20.3408 20.9015 20.3444 20.9051C20.3479 20.9086 20.3515 20.9121 20.355 20.9157C20.3586 20.9193 20.3622 20.9228 20.3657 20.9264C20.3693 20.93 20.3729 20.9336 20.3765 20.9372C20.3801 20.9407 20.3837 20.9443 20.3873 20.9479C20.3909 20.9516 20.3945 20.9552 20.3981 20.9588C20.4018 20.9624 20.4054 20.966 20.409 20.9697C20.4127 20.9733 20.4163 20.977 20.42 20.9806C20.4236 20.9843 20.4273 20.9879 20.4309 20.9916C20.4346 20.9953 20.4383 20.9989 20.442 21.0026C20.4457 21.0063 20.4494 21.01 20.4531 21.0137C20.4568 21.0174 20.4605 21.0211 20.4642 21.0248C20.4679 21.0286 20.4716 21.0323 20.4754 21.036C20.4791 21.0398 20.4829 21.0435 20.4866 21.0473C20.4904 21.051 20.4941 21.0548 20.4979 21.0585C20.5017 21.0623 20.5054 21.0661 20.5092 21.0699C20.513 21.0737 20.5168 21.0775 20.5206 21.0813C20.5244 21.0851 20.5282 21.0889 20.5321 21.0927C20.5359 21.0965 20.5397 21.1004 20.5435 21.1042C20.5474 21.108 20.5512 21.1119 20.5551 21.1158C20.559 21.1196 20.5628 21.1235 20.5667 21.1274C20.5706 21.1312 20.5745 21.1351 20.5784 21.139C20.5822 21.1429 20.5862 21.1468 20.5901 21.1507C20.594 21.1546 20.5979 21.1586 20.6018 21.1625C20.6058 21.1664 20.6097 21.1704 20.6137 21.1743C20.6176 21.1783 20.6216 21.1822 20.6255 21.1862C20.6295 21.1902 20.6335 21.1941 20.6375 21.1981C20.6415 21.2021 20.6455 21.2061 20.6495 21.2101C20.6535 21.2141 20.6575 21.2181 20.6615 21.2222C20.6655 21.2262 20.6696 21.2302 20.6736 21.2343C20.6777 21.2383 20.6817 21.2424 20.6858 21.2465C20.6899 21.2505 20.6939 21.2546 20.698 21.2587C20.7021 21.2628 20.7062 21.2669 20.7103 21.271C20.7144 21.2751 20.7185 21.2792 20.7227 21.2833C20.7268 21.2874 20.7309 21.2916 20.7351 21.2957C20.7392 21.2999 20.7434 21.304 20.7475 21.3082C20.7517 21.3124 20.7559 21.3165 20.7601 21.3207C20.7642 21.3249 20.7684 21.3291 20.7727 21.3333C20.7769 21.3375 20.7811 21.3417 20.7853 21.346C20.7895 21.3502 20.7938 21.3544 20.798 21.3587C20.8023 21.3629 20.8065 21.3672 20.8108 21.3715C20.8151 21.3757 20.8194 21.38 20.8237 21.3843C20.8279 21.3886 20.8323 21.3929 20.8366 21.3972C20.8409 21.4015 20.8452 21.4059 20.8495 21.4102C20.8539 21.4145 20.8582 21.4189 20.8626 21.4232C20.8669 21.4276 20.8713 21.432 20.8757 21.4363C20.8801 21.4407 20.8845 21.4451 20.8889 21.4495C20.8933 21.4539 20.8977 21.4583 20.9021 21.4628C20.9065 21.4672 20.911 21.4716 20.9154 21.4761C20.9199 21.4805 20.9243 21.485 20.9288 21.4894C20.9333 21.4939 20.9377 21.4984 20.9422 21.5029C20.9467 21.5074 20.9512 21.5119 20.9557 21.5164C20.9603 21.5209 20.9648 21.5254 20.9693 21.53C20.9739 21.5345 20.9784 21.5391 20.983 21.5436C20.9875 21.5482 20.9921 21.5528 20.9967 21.5574C21.0013 21.5619 21.0059 21.5665 21.0105 21.5711C21.0151 21.5758 21.0197 21.5804 21.0243 21.585C21.029 21.5896 21.0336 21.5943 21.0383 21.5989C21.0429 21.6036 21.0476 21.6083 21.0523 21.6129C21.057 21.6176 21.0617 21.6223 21.0664 21.627C21.0711 21.6317 21.0758 21.6364 21.0805 21.6412C21.0852 21.6459 21.09 21.6506 21.0947 21.6554C21.0995 21.6602 21.1043 21.6649 21.109 21.6697C21.1138 21.6745 21.1186 21.6793 21.1234 21.6841C21.1282 21.6889 21.133 21.6937 21.1379 21.6985C21.1427 21.7034 21.1475 21.7082 21.1524 21.713C21.1572 21.7179 21.1621 21.7228 21.167 21.7276C21.1719 21.7325 21.1768 21.7374 21.1817 21.7423C21.1866 21.7472 21.1915 21.7521 21.1964 21.7571C21.2013 21.762 21.2063 21.7669 21.2112 21.7719C21.2162 21.7769 21.2212 21.7818 21.2262 21.7868C21.2311 21.7918 21.2361 21.7968 21.2411 21.8018C21.2461 21.8068 21.2512 21.8118 21.2562 21.8169C21.2612 21.8219 21.2663 21.8269 21.2713 21.832C21.2764 21.8371 21.2815 21.8421 21.2866 21.8472C21.2917 21.8523 21.2968 21.8574 21.3019 21.8625C21.307 21.8676 21.3121 21.8728 21.3173 21.8779C21.3224 21.8831 21.3276 21.8882 21.3327 21.8934C21.3379 21.8986 21.3431 21.9037 21.3483 21.9089C21.3535 21.9141 21.3587 21.9193 21.3639 21.9246C21.3691 21.9298 21.3744 21.935 21.3796 21.9403C21.3849 21.9455 21.3901 21.9508 21.3954 21.9561C21.4007 21.9613 21.406 21.9666 21.4113 21.9719C21.4166 21.9772 21.4219 21.9826 21.4272 21.9879C21.4326 21.9932 21.4379 21.9986 21.4433 22.004C21.4487 22.0093 21.454 22.0147 21.4594 22.0201C21.4648 22.0255 21.4702 22.0309 21.4756 22.0363C21.4811 22.0417 21.4865 22.0472 21.4919 22.0526C21.4974 22.058 21.5028 22.0635 21.5083 22.069C21.5138 22.0745 21.5193 22.08 21.5248 22.0855C21.5303 22.091 21.5358 22.0965 21.5414 22.102C21.5469 22.1076 21.5524 22.1131 21.558 22.1187C21.5636 22.1242 21.5692 22.1298 21.5748 22.1354C21.5803 22.141 21.586 22.1466 21.5916 22.1522C21.5972 22.1579 21.6028 22.1635 21.6085 22.1692C21.6141 22.1748 21.6198 22.1805 21.6255 22.1862C21.6312 22.1918 21.6369 22.1975 21.6426 22.2033C21.6483 22.209 21.654 22.2147 21.6598 22.2204C21.6655 22.2262 21.6713 22.2319 21.6771 22.2377C21.6828 22.2435 21.6886 22.2493 21.6944 22.2551C21.7002 22.2609 21.706 22.2667 21.7119 22.2725C21.7177 22.2784 21.7236 22.2842 21.7294 22.2901C21.7353 22.296 21.7412 22.3018 21.7471 22.3077C21.753 22.3136 21.7589 22.3196 21.7648 22.3255C21.7708 22.3314 21.7767 22.3374 21.7827 22.3433C21.7886 22.3493 21.7946 22.3553 21.8006 22.3612C21.8066 22.3672 21.8126 22.3732 21.8186 22.3793C21.8246 22.3853 21.8307 22.3913 21.8367 22.3974C21.8428 22.4034 21.8488 22.4095 21.8549 22.4156C21.861 22.4217 21.8671 22.4278 21.8732 22.4339C21.8794 22.44 21.8855 22.4462 21.8916 22.4523C21.8978 22.4585 21.904 22.4646 21.9102 22.4708C21.9163 22.477 21.9225 22.4832 21.9288 22.4894C21.935 22.4956 21.9412 22.5019 21.9475 22.5081C21.9537 22.5144 21.96 22.5206 21.9662 22.5269C21.9725 22.5332 21.9788 22.5395 21.9851 22.5458C21.9915 22.5521 21.9978 22.5585 22.0041 22.5648C22.0105 22.5712 22.0169 22.5775 22.0232 22.5839C22.0296 22.5903 22.036 22.5967 22.0424 22.6031C22.0489 22.6095 22.0553 22.6159 22.0617 22.6224C22.0682 22.6288 22.0746 22.6353 22.0811 22.6418C22.0876 22.6483 22.0941 22.6548 22.1006 22.6613C22.1071 22.6678 22.1137 22.6743 22.1202 22.6809C22.1268 22.6874 22.1334 22.694 22.1399 22.7006C22.1465 22.7072 22.1531 22.7138 22.1597 22.7204C22.1664 22.727 22.173 22.7337 22.1797 22.7403C22.1863 22.747 22.193 22.7537 22.1997 22.7603C22.2064 22.767 22.2131 22.7737 22.2198 22.7805C22.2265 22.7872 22.2333 22.7939 22.24 22.8007C22.2468 22.8075 22.2536 22.8142 22.2604 22.821C22.2672 22.8278 22.274 22.8346 22.2808 22.8415C22.2876 22.8483 22.2945 22.8551 22.3013 22.862C22.3082 22.8689 22.3151 22.8758 22.322 22.8827C22.3289 22.8896 22.3358 22.8965 22.3428 22.9034C22.3497 22.9104 22.3567 22.9173 22.3636 22.9243C22.3706 22.9313 22.3776 22.9383 22.3846 22.9453C22.3916 22.9523 22.3986 22.9593 22.4057 22.9664C22.4127 22.9734 22.4198 22.9805 22.4269 22.9876C22.434 22.9946 22.4411 23.0017 22.4482 23.0089C22.4553 23.016 22.4625 23.0231 22.4696 23.0303C22.4768 23.0374 22.4839 23.0446 22.4911 23.0518C22.4983 23.059 22.5055 23.0662 22.5128 23.0734C22.52 23.0807 22.5273 23.0879 22.5345 23.0952C22.5418 23.1025 22.5491 23.1097 22.5564 23.1171C22.5637 23.1244 22.571 23.1317 22.5784 23.139C22.5857 23.1464 22.5931 23.1537 22.6005 23.1611C22.6078 23.1685 22.6152 23.1759 22.6227 23.1833C22.6301 23.1907 22.6375 23.1982 22.645 23.2056C22.6524 23.2131 22.6599 23.2206 22.6674 23.2281C22.6749 23.2356 22.6824 23.2431 22.69 23.2506C22.6975 23.2581 22.705 23.2657 22.7126 23.2733C22.7202 23.2808 22.7278 23.2884 22.7354 23.2961C22.743 23.3037 22.7506 23.3113 22.7583 23.3189C22.7659 23.3266 22.7736 23.3343 22.7813 23.342C22.789 23.3497 22.7967 23.3574 22.8044 23.3651C22.8122 23.3728 22.8199 23.3806 22.8277 23.3883C22.8354 23.3961 22.8432 23.4039 22.851 23.4117C22.8589 23.4195 22.8667 23.4273 22.8745 23.4352C22.8824 23.443 22.8902 23.4509 22.8981 23.4588C22.906 23.4667 22.9139 23.4746 22.9219 23.4825C22.9298 23.4904 22.9377 23.4984 22.9457 23.5064C22.9537 23.5143 22.9617 23.5223 22.9697 23.5303L24.0303 22.4697C24.0223 22.4617 24.0143 22.4537 24.0064 22.4457C23.9984 22.4377 23.9904 22.4298 23.9825 22.4219C23.9746 22.4139 23.9667 22.406 23.9588 22.3981C23.9509 22.3902 23.943 22.3824 23.9352 22.3745C23.9273 22.3667 23.9195 22.3589 23.9117 22.351C23.9039 22.3432 23.8961 22.3354 23.8883 22.3277C23.8806 22.3199 23.8728 22.3122 23.8651 22.3044C23.8574 22.2967 23.8497 22.289 23.842 22.2813C23.8343 22.2736 23.8266 22.2659 23.8189 22.2583C23.8113 22.2506 23.8037 22.243 23.7961 22.2354C23.7884 22.2278 23.7808 22.2202 23.7733 22.2126C23.7657 22.205 23.7581 22.1975 23.7506 22.19C23.7431 22.1824 23.7356 22.1749 23.7281 22.1674C23.7206 22.1599 23.7131 22.1524 23.7056 22.145C23.6982 22.1375 23.6907 22.1301 23.6833 22.1227C23.6759 22.1152 23.6685 22.1078 23.6611 22.1005C23.6537 22.0931 23.6464 22.0857 23.639 22.0784C23.6317 22.071 23.6244 22.0637 23.6171 22.0564C23.6097 22.0491 23.6025 22.0418 23.5952 22.0345C23.5879 22.0273 23.5807 22.02 23.5734 22.0128C23.5662 22.0055 23.559 21.9983 23.5518 21.9911C23.5446 21.9839 23.5374 21.9768 23.5303 21.9696C23.5231 21.9625 23.516 21.9553 23.5089 21.9482C23.5017 21.9411 23.4946 21.934 23.4876 21.9269C23.4805 21.9198 23.4734 21.9127 23.4664 21.9057C23.4593 21.8986 23.4523 21.8916 23.4453 21.8846C23.4383 21.8776 23.4313 21.8706 23.4243 21.8636C23.4173 21.8567 23.4104 21.8497 23.4034 21.8428C23.3965 21.8358 23.3896 21.8289 23.3827 21.822C23.3758 21.8151 23.3689 21.8082 23.362 21.8013C23.3551 21.7945 23.3483 21.7876 23.3415 21.7808C23.3346 21.774 23.3278 21.7672 23.321 21.7604C23.3142 21.7536 23.3075 21.7468 23.3007 21.74C23.2939 21.7333 23.2872 21.7265 23.2805 21.7198C23.2737 21.7131 23.267 21.7064 23.2603 21.6997C23.2537 21.693 23.247 21.6863 23.2403 21.6797C23.2337 21.673 23.227 21.6664 23.2204 21.6597C23.2138 21.6531 23.2072 21.6465 23.2006 21.6399C23.194 21.6334 23.1874 21.6268 23.1809 21.6202C23.1743 21.6137 23.1678 21.6071 23.1613 21.6006C23.1548 21.5941 23.1483 21.5876 23.1418 21.5811C23.1353 21.5746 23.1288 21.5682 23.1224 21.5617C23.1159 21.5553 23.1095 21.5489 23.1031 21.5424C23.0967 21.536 23.0903 21.5296 23.0839 21.5232C23.0775 21.5169 23.0712 21.5105 23.0648 21.5041C23.0585 21.4978 23.0521 21.4915 23.0458 21.4851C23.0395 21.4788 23.0332 21.4725 23.0269 21.4662C23.0206 21.46 23.0144 21.4537 23.0081 21.4475C23.0019 21.4412 22.9956 21.435 22.9894 21.4288C22.9832 21.4225 22.977 21.4163 22.9708 21.4102C22.9646 21.404 22.9585 21.3978 22.9523 21.3916C22.9462 21.3855 22.94 21.3794 22.9339 21.3732C22.9278 21.3671 22.9217 21.361 22.9156 21.3549C22.9095 21.3488 22.9034 21.3428 22.8974 21.3367C22.8913 21.3307 22.8853 21.3246 22.8793 21.3186C22.8732 21.3126 22.8672 21.3066 22.8612 21.3006C22.8553 21.2946 22.8493 21.2886 22.8433 21.2827C22.8374 21.2767 22.8314 21.2708 22.8255 21.2648C22.8196 21.2589 22.8136 21.253 22.8077 21.2471C22.8018 21.2412 22.796 21.2353 22.7901 21.2294C22.7842 21.2236 22.7784 21.2177 22.7725 21.2119C22.7667 21.206 22.7609 21.2002 22.7551 21.1944C22.7493 21.1886 22.7435 21.1828 22.7377 21.1771C22.7319 21.1713 22.7262 21.1655 22.7204 21.1598C22.7147 21.154 22.709 21.1483 22.7033 21.1426C22.6975 21.1369 22.6918 21.1312 22.6862 21.1255C22.6805 21.1198 22.6748 21.1141 22.6692 21.1085C22.6635 21.1028 22.6579 21.0972 22.6522 21.0916C22.6466 21.086 22.641 21.0803 22.6354 21.0748C22.6298 21.0692 22.6242 21.0636 22.6187 21.058C22.6131 21.0524 22.6076 21.0469 22.602 21.0414C22.5965 21.0358 22.591 21.0303 22.5855 21.0248C22.58 21.0193 22.5745 21.0138 22.569 21.0083C22.5635 21.0028 22.558 20.9974 22.5526 20.9919C22.5472 20.9865 22.5417 20.9811 22.5363 20.9756C22.5309 20.9702 22.5255 20.9648 22.5201 20.9594C22.5147 20.954 22.5093 20.9487 22.504 20.9433C22.4986 20.9379 22.4932 20.9326 22.4879 20.9272C22.4826 20.9219 22.4772 20.9166 22.4719 20.9113C22.4666 20.906 22.4613 20.9007 22.4561 20.8954C22.4508 20.8901 22.4455 20.8849 22.4403 20.8796C22.435 20.8744 22.4298 20.8691 22.4246 20.8639C22.4193 20.8587 22.4141 20.8535 22.4089 20.8483C22.4037 20.8431 22.3986 20.8379 22.3934 20.8327C22.3882 20.8276 22.3831 20.8224 22.3779 20.8173C22.3728 20.8121 22.3676 20.807 22.3625 20.8019C22.3574 20.7968 22.3523 20.7917 22.3472 20.7866C22.3421 20.7815 22.3371 20.7764 22.332 20.7713C22.3269 20.7663 22.3219 20.7612 22.3169 20.7562C22.3118 20.7512 22.3068 20.7461 22.3018 20.7411C22.2968 20.7361 22.2918 20.7311 22.2868 20.7262C22.2818 20.7212 22.2769 20.7162 22.2719 20.7112C22.2669 20.7063 22.262 20.7013 22.2571 20.6964C22.2521 20.6915 22.2472 20.6866 22.2423 20.6817C22.2374 20.6768 22.2325 20.6719 22.2276 20.667C22.2228 20.6621 22.2179 20.6572 22.213 20.6524C22.2082 20.6475 22.2034 20.6427 22.1985 20.6379C22.1937 20.633 22.1889 20.6282 22.1841 20.6234C22.1793 20.6186 22.1745 20.6138 22.1697 20.609C22.1649 20.6043 22.1602 20.5995 22.1554 20.5947C22.1506 20.59 22.1459 20.5852 22.1412 20.5805C22.1364 20.5758 22.1317 20.5711 22.127 20.5664C22.1223 20.5617 22.1176 20.557 22.1129 20.5523C22.1083 20.5476 22.1036 20.5429 22.0989 20.5383C22.0943 20.5336 22.0896 20.529 22.085 20.5243C22.0804 20.5197 22.0758 20.5151 22.0711 20.5105C22.0665 20.5059 22.0619 20.5013 22.0574 20.4967C22.0528 20.4921 22.0482 20.4875 22.0436 20.483C22.0391 20.4784 22.0345 20.4739 22.03 20.4693C22.0254 20.4648 22.0209 20.4603 22.0164 20.4557C22.0119 20.4512 22.0074 20.4467 22.0029 20.4422C21.9984 20.4377 21.9939 20.4333 21.9894 20.4288C21.985 20.4243 21.9805 20.4199 21.9761 20.4154C21.9716 20.411 21.9672 20.4065 21.9628 20.4021C21.9583 20.3977 21.9539 20.3933 21.9495 20.3889C21.9451 20.3845 21.9407 20.3801 21.9363 20.3757C21.932 20.3713 21.9276 20.3669 21.9232 20.3626C21.9189 20.3582 21.9145 20.3539 21.9102 20.3495C21.9059 20.3452 21.9015 20.3409 21.8972 20.3366C21.8929 20.3323 21.8886 20.3279 21.8843 20.3237C21.88 20.3194 21.8757 20.3151 21.8715 20.3108C21.8672 20.3065 21.8629 20.3023 21.8587 20.298C21.8544 20.2938 21.8502 20.2895 21.846 20.2853C21.8417 20.2811 21.8375 20.2769 21.8333 20.2727C21.8291 20.2684 21.8249 20.2642 21.8207 20.2601C21.8165 20.2559 21.8124 20.2517 21.8082 20.2475C21.804 20.2434 21.7999 20.2392 21.7957 20.2351C21.7916 20.2309 21.7874 20.2268 21.7833 20.2227C21.7792 20.2185 21.7751 20.2144 21.771 20.2103C21.7669 20.2062 21.7628 20.2021 21.7587 20.198C21.7546 20.1939 21.7505 20.1899 21.7465 20.1858C21.7424 20.1817 21.7383 20.1777 21.7343 20.1736C21.7302 20.1696 21.7262 20.1655 21.7222 20.1615C21.7181 20.1575 21.7141 20.1535 21.7101 20.1495C21.7061 20.1455 21.7021 20.1415 21.6981 20.1375C21.6941 20.1335 21.6902 20.1295 21.6862 20.1255C21.6822 20.1216 21.6783 20.1176 21.6743 20.1137C21.6704 20.1097 21.6664 20.1058 21.6625 20.1018C21.6586 20.0979 21.6546 20.094 21.6507 20.0901C21.6468 20.0862 21.6429 20.0822 21.639 20.0784C21.6351 20.0745 21.6312 20.0706 21.6274 20.0667C21.6235 20.0628 21.6196 20.059 21.6158 20.0551C21.6119 20.0512 21.608 20.0474 21.6042 20.0435C21.6004 20.0397 21.5965 20.0359 21.5927 20.0321C21.5889 20.0282 21.5851 20.0244 21.5813 20.0206C21.5775 20.0168 21.5737 20.013 21.5699 20.0092C21.5661 20.0054 21.5623 20.0017 21.5585 19.9979C21.5548 19.9941 21.551 19.9904 21.5473 19.9866C21.5435 19.9829 21.5398 19.9791 21.536 19.9754C21.5323 19.9716 21.5286 19.9679 21.5248 19.9642C21.5211 19.9605 21.5174 19.9568 21.5137 19.9531C21.51 19.9494 21.5063 19.9457 21.5026 19.942C21.4989 19.9383 21.4953 19.9346 21.4916 19.9309C21.4879 19.9273 21.4843 19.9236 21.4806 19.92C21.477 19.9163 21.4733 19.9127 21.4697 19.909C21.466 19.9054 21.4624 19.9018 21.4588 19.8981C21.4552 19.8945 21.4516 19.8909 21.4479 19.8873C21.4443 19.8837 21.4407 19.8801 21.4372 19.8765C21.4336 19.8729 21.43 19.8693 21.4264 19.8657C21.4228 19.8622 21.4193 19.8586 21.4157 19.855C21.4121 19.8515 21.4086 19.8479 21.4051 19.8444C21.4015 19.8408 21.398 19.8373 21.3944 19.8338C21.3909 19.8302 21.3874 19.8267 21.3839 19.8232C21.3804 19.8197 21.3769 19.8162 21.3734 19.8127C21.3699 19.8092 21.3664 19.8057 21.3629 19.8022C21.3594 19.7987 21.3559 19.7952 21.3524 19.7918C21.349 19.7883 21.3455 19.7848 21.342 19.7814C21.3386 19.7779 21.3351 19.7745 21.3317 19.771C21.3282 19.7676 21.3248 19.7642 21.3214 19.7607C21.318 19.7573 21.3145 19.7539 21.3111 19.7505C21.3077 19.747 21.3043 19.7436 21.3009 19.7402C21.2975 19.7368 21.2941 19.7334 21.2907 19.73C21.2873 19.7267 21.2839 19.7233 21.2806 19.7199C21.2772 19.7165 21.2738 19.7131 21.2704 19.7098C21.2671 19.7064 21.2637 19.7031 21.2604 19.6997C21.257 19.6964 21.2537 19.693 21.2503 19.6897C21.247 19.6863 21.2437 19.683 21.2404 19.6797C21.237 19.6764 21.2337 19.6731 21.2304 19.6697C21.2271 19.6664 21.2238 19.6631 21.2205 19.6598C21.2172 19.6565 21.2139 19.6532 21.2106 19.6499C21.2073 19.6467 21.204 19.6434 21.2008 19.6401C21.1975 19.6368 21.1942 19.6335 21.1909 19.6303C21.1877 19.627 21.1844 19.6238 21.1812 19.6205C21.1779 19.6173 21.1747 19.614 21.1714 19.6108C21.1682 19.6075 21.165 19.6043 21.1617 19.6011C21.1585 19.5978 21.1553 19.5946 21.1521 19.5914C21.1488 19.5882 21.1456 19.585 21.1424 19.5818C21.1392 19.5785 21.136 19.5753 21.1328 19.5721C21.1296 19.5689 21.1264 19.5658 21.1232 19.5626C21.12 19.5594 21.1169 19.5562 21.1137 19.553C21.1105 19.5499 21.1073 19.5467 21.1042 19.5435C21.101 19.5403 21.0978 19.5372 21.0947 19.534C21.0915 19.5309 21.0884 19.5277 21.0852 19.5246C21.0821 19.5214 21.079 19.5183 21.0758 19.5152C21.0727 19.512 21.0696 19.5089 21.0664 19.5058C21.0633 19.5026 21.0602 19.4995 21.0571 19.4964C21.054 19.4933 21.0508 19.4902 21.0477 19.4871C21.0446 19.484 21.0415 19.4809 21.0384 19.4778C21.0353 19.4747 21.0322 19.4716 21.0292 19.4685C21.0261 19.4654 21.023 19.4623 21.0199 19.4592C21.0168 19.4562 21.0137 19.4531 21.0107 19.45C21.0076 19.4469 21.0045 19.4439 21.0015 19.4408C20.9984 19.4378 20.9954 19.4347 20.9923 19.4316C20.9893 19.4286 20.9862 19.4255 20.9832 19.4225C20.9801 19.4195 20.9771 19.4164 20.974 19.4134C20.971 19.4103 20.968 19.4073 20.9649 19.4043C20.9619 19.4012 20.9589 19.3982 20.9559 19.3952C20.9528 19.3922 20.9498 19.3892 20.9468 19.3861C20.9438 19.3831 20.9408 19.3801 20.9378 19.3771C20.9348 19.3741 20.9318 19.3711 20.9288 19.3681C20.9258 19.3651 20.9228 19.3621 20.9198 19.3591C20.9168 19.3561 20.9138 19.3531 20.9108 19.3502C20.9078 19.3472 20.9049 19.3442 20.9019 19.3412C20.8989 19.3382 20.8959 19.3353 20.893 19.3323C20.89 19.3293 20.887 19.3264 20.8841 19.3234C20.8811 19.3204 20.8781 19.3175 20.8752 19.3145C20.8722 19.3116 20.8693 19.3086 20.8663 19.3056C20.8634 19.3027 20.8604 19.2997 20.8575 19.2968C20.8545 19.2939 20.8516 19.2909 20.8486 19.288C20.8457 19.285 20.8428 19.2821 20.8398 19.2792C20.8369 19.2762 20.834 19.2733 20.831 19.2704C20.8281 19.2674 20.8252 19.2645 20.8223 19.2616C20.8193 19.2587 20.8164 19.2557 20.8135 19.2528C20.8106 19.2499 20.8077 19.247 20.8047 19.2441C20.8018 19.2412 20.7989 19.2383 20.796 19.2354C20.7931 19.2324 20.7902 19.2295 20.7873 19.2266C20.7844 19.2237 20.7815 19.2208 20.7786 19.2179C20.7757 19.215 20.7728 19.2121 20.7699 19.2093C20.767 19.2064 20.7641 19.2035 20.7612 19.2006C20.7584 19.1977 20.7555 19.1948 20.7526 19.1919C20.7497 19.189 20.7468 19.1861 20.7439 19.1833C20.741 19.1804 20.7382 19.1775 20.7353 19.1746C20.7324 19.1718 20.7295 19.1689 20.7267 19.166C20.7238 19.1631 20.7209 19.1603 20.7181 19.1574C20.7152 19.1545 20.7123 19.1517 20.7094 19.1488C20.7066 19.1459 20.7037 19.1431 20.7009 19.1402C20.698 19.1373 20.6951 19.1345 20.6923 19.1316C20.6894 19.1287 20.6866 19.1259 20.6837 19.123C20.6808 19.1202 20.678 19.1173 20.6751 19.1145C20.6723 19.1116 20.6694 19.1088 20.6666 19.1059C20.6637 19.1031 20.6609 19.1002 20.658 19.0974C20.6552 19.0945 20.6523 19.0917 20.6495 19.0888C20.6466 19.086 20.6438 19.0831 20.6409 19.0803C20.6381 19.0774 20.6352 19.0746 20.6324 19.0717C20.6296 19.0689 20.6267 19.0661 20.6239 19.0632C20.621 19.0604 20.6182 19.0575 20.6154 19.0547C20.6125 19.0519 20.6097 19.049 20.6068 19.0462C20.604 19.0433 20.6012 19.0405 20.5983 19.0377C20.5955 19.0348 20.5927 19.032 20.5898 19.0292C20.587 19.0263 20.5841 19.0235 20.5813 19.0207C20.5785 19.0178 20.5756 19.015 20.5728 19.0122C20.57 19.0093 20.5671 19.0065 20.5643 19.0037C20.5615 19.0008 20.5586 18.998 20.5558 18.9952C20.553 18.9923 20.5502 18.9895 20.5473 18.9867C20.5445 18.9838 20.5417 18.981 20.5388 18.9782C20.536 18.9753 20.5332 18.9725 20.5303 18.9697C20.5275 18.9668 20.5247 18.964 20.5218 18.9612C20.519 18.9583 20.5162 18.9555 20.5133 18.9527C20.5105 18.9498 20.5077 18.947 20.5048 18.9442C20.502 18.9414 20.4992 18.9385 20.4963 18.9357C20.4935 18.9329 20.4907 18.93 20.4878 18.9272C20.485 18.9244 20.4822 18.9215 20.4793 18.9187C20.4765 18.9159 20.4737 18.913 20.4708 18.9102C20.468 18.9073 20.4652 18.9045 20.4623 18.9017C20.4595 18.8988 20.4567 18.896 20.4538 18.8932C20.451 18.8903 20.4481 18.8875 20.4453 18.8846C20.4425 18.8818 20.4396 18.879 20.4368 18.8761C20.4339 18.8733 20.4311 18.8704 20.4283 18.8676C20.4254 18.8648 20.4226 18.8619 20.4197 18.8591C20.4169 18.8562 20.414 18.8534 20.4112 18.8505C20.4083 18.8477 20.4055 18.8448 20.4026 18.842C20.3998 18.8391 20.3969 18.8363 20.3941 18.8334C20.3912 18.8306 20.3884 18.8277 20.3855 18.8249C20.3827 18.822 20.3798 18.8192 20.377 18.8163C20.3741 18.8134 20.3713 18.8106 20.3684 18.8077C20.3655 18.8049 20.3627 18.802 20.3598 18.7991C20.3569 18.7963 20.3541 18.7934 20.3512 18.7906C20.3483 18.7877 20.3455 18.7848 20.3426 18.7819C20.3397 18.7791 20.3369 18.7762 20.334 18.7733C20.3311 18.7705 20.3282 18.7676 20.3254 18.7647C20.3225 18.7618 20.3196 18.759 20.3167 18.7561C20.3139 18.7532 20.311 18.7503 20.3081 18.7474C20.3052 18.7445 20.3023 18.7416 20.2994 18.7388C20.2965 18.7359 20.2936 18.733 20.2907 18.7301C20.2879 18.7272 20.285 18.7243 20.2821 18.7214C20.2792 18.7185 20.2763 18.7156 20.2734 18.7127C20.2705 18.7098 20.2676 18.7069 20.2646 18.704C20.2617 18.7011 20.2588 18.6982 20.2559 18.6953C20.253 18.6923 20.2501 18.6894 20.2472 18.6865C20.2443 18.6836 20.2413 18.6807 20.2384 18.6777C20.2355 18.6748 20.2326 18.6719 20.2296 18.669C20.2267 18.666 20.2238 18.6631 20.2208 18.6602C20.2179 18.6572 20.215 18.6543 20.212 18.6514C20.2091 18.6484 20.2061 18.6455 20.2032 18.6425C20.2003 18.6396 20.1973 18.6366 20.1944 18.6337C20.1914 18.6307 20.1884 18.6278 20.1855 18.6248C20.1825 18.6219 20.1796 18.6189 20.1766 18.6159C20.1736 18.613 20.1707 18.61 20.1677 18.607C20.1647 18.6041 20.1618 18.6011 20.1588 18.5981C20.1558 18.5951 20.1528 18.5922 20.1498 18.5892C20.1469 18.5862 20.1439 18.5832 20.1409 18.5802C20.1379 18.5772 20.1349 18.5742 20.1319 18.5712C20.1289 18.5682 20.1259 18.5652 20.1229 18.5622C20.1199 18.5592 20.1169 18.5562 20.1139 18.5532C20.1108 18.5502 20.1078 18.5472 20.1048 18.5441C20.1018 18.5411 20.0988 18.5381 20.0957 18.5351C20.0927 18.532 20.0897 18.529 20.0866 18.526C20.0836 18.5229 20.0805 18.5199 20.0775 18.5168C20.0745 18.5138 20.0714 18.5107 20.0684 18.5077C20.0653 18.5046 20.0622 18.5016 20.0592 18.4985C20.0561 18.4955 20.0531 18.4924 20.05 18.4893C20.0469 18.4863 20.0438 18.4832 20.0408 18.4801C20.0377 18.477 20.0346 18.4739 20.0315 18.4708C20.0284 18.4678 20.0253 18.4647 20.0222 18.4616C20.0191 18.4585 20.016 18.4554 20.0129 18.4523C20.0098 18.4492 20.0067 18.446 20.0036 18.4429C20.0005 18.4398 19.9974 18.4367 19.9942 18.4336C19.9911 18.4304 19.988 18.4273 19.9848 18.4242C19.9817 18.421 19.9786 18.4179 19.9754 18.4148C19.9723 18.4116 19.9691 18.4085 19.966 18.4053C19.9628 18.4022 19.9597 18.399 19.9565 18.3958C19.9533 18.3927 19.9501 18.3895 19.947 18.3863C19.9438 18.3831 19.9406 18.38 19.9374 18.3768C19.9342 18.3736 19.9311 18.3704 19.9279 18.3672C19.9247 18.364 19.9215 18.3608 19.9182 18.3576C19.915 18.3544 19.9118 18.3512 19.9086 18.3479C19.9054 18.3447 19.9022 18.3415 19.8989 18.3383C19.8957 18.335 19.8925 18.3318 19.8892 18.3286C19.886 18.3253 19.8827 18.3221 19.8795 18.3188C19.8762 18.3156 19.873 18.3123 19.8697 18.3091C19.8665 18.3058 19.8632 18.3025 19.8599 18.2992C19.8566 18.296 19.8533 18.2927 19.8501 18.2894C19.8468 18.2861 19.8435 18.2828 19.8402 18.2795C19.8369 18.2762 19.8336 18.2729 19.8303 18.2696C19.8269 18.2663 19.8236 18.263 19.8203 18.2596C19.817 18.2563 19.8137 18.253 19.8103 18.2497C19.807 18.2463 19.8036 18.243 19.8003 18.2396C19.7969 18.2363 19.7936 18.2329 19.7902 18.2296C19.7869 18.2262 19.7835 18.2228 19.7801 18.2194C19.7767 18.2161 19.7733 18.2127 19.77 18.2093C19.7666 18.2059 19.7632 18.2025 19.7598 18.1991C19.7564 18.1957 19.753 18.1923 19.7495 18.1889C19.7461 18.1855 19.7427 18.182 19.7393 18.1786C19.7358 18.1752 19.7324 18.1718 19.729 18.1683C19.7255 18.1649 19.7221 18.1614 19.7186 18.158C19.7152 18.1545 19.7117 18.151 19.7082 18.1476C19.7048 18.1441 19.7013 18.1406 19.6978 18.1371C19.6943 18.1336 19.6908 18.1301 19.6873 18.1266C19.6838 18.1231 19.6803 18.1196 19.6768 18.1161C19.6733 18.1126 19.6698 18.1091 19.6662 18.1056C19.6627 18.102 19.6592 18.0985 19.6556 18.0949C19.6521 18.0914 19.6485 18.0879 19.645 18.0843C19.6414 18.0807 19.6378 18.0772 19.6343 18.0736C19.6307 18.07 19.6271 18.0664 19.6235 18.0628C19.6199 18.0593 19.6163 18.0557 19.6127 18.0521C19.6091 18.0484 19.6055 18.0448 19.6019 18.0412C19.5982 18.0376 19.5946 18.034 19.591 18.0303C19.5873 18.0267 19.5837 18.023 19.58 18.0194C19.5764 18.0157 19.5727 18.0121 19.5691 18.0084C19.5654 18.0047 19.5617 18.0011 19.558 17.9974C19.5543 17.9937 19.5506 17.99 19.5469 17.9863C19.5432 17.9826 19.5395 17.9789 19.5358 17.9752C19.5321 17.9714 19.5284 17.9677 19.5246 17.964C19.5209 17.9602 19.5171 17.9565 19.5134 17.9527C19.5096 17.949 19.5059 17.9452 19.5021 17.9415C19.4983 17.9377 19.4946 17.9339 19.4908 17.9301C19.487 17.9263 19.4832 17.9225 19.4794 17.9187C19.4756 17.9149 19.4718 17.9111 19.4679 17.9073C19.4641 17.9035 19.4603 17.8996 19.4565 17.8958C19.4526 17.892 19.4488 17.8881 19.4449 17.8842C19.441 17.8804 19.4372 17.8765 19.4333 17.8726C19.4294 17.8688 19.4255 17.8649 19.4216 17.861C19.4178 17.8571 19.4138 17.8532 19.4099 17.8493C19.406 17.8454 19.4021 17.8414 19.3982 17.8375C19.3942 17.8336 19.3903 17.8296 19.3863 17.8257C19.3824 17.8217 19.3784 17.8178 19.3745 17.8138C19.3705 17.8098 19.3665 17.8059 19.3625 17.8019C19.3585 17.7979 19.3545 17.7939 19.3505 17.7899C19.3465 17.7859 19.3425 17.7819 19.3385 17.7778C19.3345 17.7738 19.3304 17.7698 19.3264 17.7657C19.3223 17.7617 19.3183 17.7576 19.3142 17.7535C19.3101 17.7495 19.3061 17.7454 19.302 17.7413C19.2979 17.7372 19.2938 17.7331 19.2897 17.729C19.2856 17.7249 19.2815 17.7208 19.2773 17.7167C19.2732 17.7126 19.2691 17.7084 19.2649 17.7043C19.2608 17.7001 19.2566 17.696 19.2525 17.6918C19.2483 17.6876 19.2441 17.6835 19.2399 17.6793C19.2358 17.6751 19.2316 17.6709 19.2273 17.6667C19.2231 17.6625 19.2189 17.6583 19.2147 17.654C19.2105 17.6498 19.2062 17.6456 19.202 17.6413C19.1977 17.6371 19.1935 17.6328 19.1892 17.6285C19.1849 17.6243 19.1806 17.62 19.1763 17.6157C19.1721 17.6114 19.1677 17.6071 19.1634 17.6028C19.1591 17.5985 19.1548 17.5941 19.1505 17.5898C19.1461 17.5855 19.1418 17.5811 19.1374 17.5768C19.1331 17.5724 19.1287 17.568 19.1243 17.5637C19.1199 17.5593 19.1155 17.5549 19.1111 17.5505C19.1067 17.5461 19.1023 17.5417 19.0979 17.5372C19.0935 17.5328 19.089 17.5284 19.0846 17.5239C19.0801 17.5195 19.0757 17.515 19.0712 17.5106C19.0667 17.5061 19.0623 17.5016 19.0578 17.4971C19.0533 17.4926 19.0488 17.4881 19.0443 17.4836C19.0397 17.4791 19.0352 17.4746 19.0307 17.47C19.0261 17.4655 19.0216 17.4609 19.017 17.4564C19.0125 17.4518 19.0079 17.4472 19.0033 17.4426C18.9987 17.4381 18.9941 17.4335 18.9895 17.4289C18.9849 17.4242 18.9803 17.4196 18.9757 17.415C18.971 17.4104 18.9664 17.4057 18.9617 17.4011C18.9571 17.3964 18.9524 17.3917 18.9477 17.3871C18.943 17.3824 18.9383 17.3777 18.9336 17.373C18.9289 17.3683 18.9242 17.3636 18.9195 17.3588C18.9148 17.3541 18.91 17.3494 18.9053 17.3446C18.9005 17.3398 18.8957 17.3351 18.891 17.3303C18.8862 17.3255 18.8814 17.3207 18.8766 17.3159C18.8718 17.3111 18.867 17.3063 18.8621 17.3015C18.8573 17.2966 18.8525 17.2918 18.8476 17.287C18.8428 17.2821 18.8379 17.2772 18.833 17.2724C18.8281 17.2675 18.8232 17.2626 18.8183 17.2577C18.8134 17.2528 18.8085 17.2479 18.8036 17.2429C18.7987 17.238 18.7937 17.2331 18.7888 17.2281C18.7838 17.2231 18.7788 17.2182 18.7738 17.2132C18.7689 17.2082 18.7639 17.2032 18.7589 17.1982C18.7539 17.1932 18.7488 17.1882 18.7438 17.1831C18.7388 17.1781 18.7337 17.1731 18.7287 17.168C18.7236 17.1629 18.7185 17.1579 18.7134 17.1528C18.7083 17.1477 18.7032 17.1426 18.6981 17.1375C18.693 17.1324 18.6879 17.1272 18.6827 17.1221C18.6776 17.1169 18.6724 17.1118 18.6673 17.1066C18.6621 17.1014 18.6569 17.0963 18.6517 17.0911C18.6465 17.0859 18.6413 17.0807 18.6361 17.0754C18.6309 17.0702 18.6256 17.065 18.6204 17.0597C18.6151 17.0545 18.6099 17.0492 18.6046 17.0439C18.5993 17.0387 18.594 17.0334 18.5887 17.0281C18.5834 17.0228 18.5781 17.0174 18.5728 17.0121C18.5674 17.0068 18.5621 17.0014 18.5567 16.996C18.5513 16.9907 18.546 16.9853 18.5406 16.9799C18.5352 16.9745 18.5298 16.9691 18.5244 16.9637C18.5189 16.9583 18.5135 16.9528 18.5081 16.9474C18.5026 16.942 18.4972 16.9365 18.4917 16.931C18.4862 16.9255 18.4807 16.92 18.4752 16.9145C18.4697 16.909 18.4642 16.9035 18.4586 16.898C18.4531 16.8924 18.4476 16.8869 18.442 16.8813C18.4364 16.8758 18.4308 16.8702 18.4252 16.8646C18.4197 16.859 18.414 16.8534 18.4084 16.8478C18.4028 16.8421 18.3972 16.8365 18.3915 16.8308C18.3859 16.8252 18.3802 16.8195 18.3745 16.8138C18.3688 16.8082 18.3631 16.8025 18.3574 16.7967C18.3517 16.791 18.346 16.7853 18.3402 16.7796C18.3345 16.7738 18.3287 16.7681 18.3229 16.7623C18.3172 16.7565 18.3114 16.7507 18.3056 16.7449C18.2998 16.7391 18.294 16.7333 18.2881 16.7275C18.2823 16.7216 18.2764 16.7158 18.2706 16.7099C18.2647 16.704 18.2588 16.6982 18.2529 16.6923C18.247 16.6864 18.2411 16.6804 18.2352 16.6745C18.2292 16.6686 18.2233 16.6626 18.2173 16.6567C18.2114 16.6507 18.2054 16.6447 18.1994 16.6388C18.1934 16.6328 18.1874 16.6268 18.1814 16.6207C18.1754 16.6147 18.1693 16.6087 18.1633 16.6026C18.1572 16.5966 18.1512 16.5905 18.1451 16.5844C18.139 16.5783 18.1329 16.5722 18.1268 16.5661C18.1206 16.56 18.1145 16.5538 18.1084 16.5477C18.1022 16.5415 18.096 16.5354 18.0898 16.5292C18.0837 16.523 18.0775 16.5168 18.0712 16.5106C18.065 16.5044 18.0588 16.4981 18.0525 16.4919C18.0463 16.4856 18.04 16.4794 18.0338 16.4731C18.0275 16.4668 18.0212 16.4605 18.0149 16.4542C18.0085 16.4479 18.0022 16.4415 17.9959 16.4352C17.9895 16.4288 17.9831 16.4225 17.9768 16.4161C17.9704 16.4097 17.964 16.4033 17.9576 16.3969C17.9511 16.3905 17.9447 16.3841 17.9383 16.3776C17.9318 16.3712 17.9254 16.3647 17.9189 16.3582C17.9124 16.3517 17.9059 16.3452 17.8994 16.3387C17.8929 16.3322 17.8863 16.3257 17.8798 16.3191C17.8732 16.3126 17.8666 16.306 17.8601 16.2994C17.8535 16.2928 17.8469 16.2862 17.8403 16.2796C17.8336 16.273 17.827 16.2663 17.8203 16.2597C17.8137 16.253 17.807 16.2463 17.8003 16.2397C17.7936 16.233 17.7869 16.2263 17.7802 16.2195C17.7735 16.2128 17.7667 16.2061 17.76 16.1993C17.7532 16.1925 17.7464 16.1858 17.7396 16.179C17.7328 16.1722 17.726 16.1654 17.7192 16.1585C17.7124 16.1517 17.7055 16.1449 17.6987 16.138C17.6918 16.1311 17.6849 16.1242 17.678 16.1173C17.6711 16.1104 17.6642 16.1035 17.6572 16.0966C17.6503 16.0896 17.6433 16.0827 17.6364 16.0757C17.6294 16.0687 17.6224 16.0617 17.6154 16.0547C17.6084 16.0477 17.6014 16.0407 17.5943 16.0336C17.5873 16.0266 17.5802 16.0195 17.5731 16.0124C17.566 16.0054 17.5589 15.9983 17.5518 15.9911C17.5447 15.984 17.5375 15.9769 17.5304 15.9697C17.5232 15.9626 17.5161 15.9554 17.5089 15.9482C17.5017 15.941 17.4945 15.9338 17.4872 15.9266C17.48 15.9193 17.4727 15.9121 17.4655 15.9048C17.4582 15.8975 17.4509 15.8903 17.4436 15.8829C17.4363 15.8756 17.429 15.8683 17.4216 15.861C17.4143 15.8536 17.4069 15.8463 17.3995 15.8389C17.3922 15.8315 17.3848 15.8241 17.3773 15.8167C17.3699 15.8093 17.3625 15.8018 17.355 15.7944C17.3476 15.7869 17.3401 15.7794 17.3326 15.7719C17.3251 15.7644 17.3176 15.7569 17.31 15.7494C17.3025 15.7419 17.295 15.7343 17.2874 15.7267C17.2798 15.7192 17.2722 15.7116 17.2646 15.7039C17.257 15.6963 17.2494 15.6887 17.2417 15.6811C17.2341 15.6734 17.2264 15.6657 17.2187 15.658C17.211 15.6503 17.2033 15.6426 17.1956 15.6349C17.1878 15.6272 17.1801 15.6194 17.1723 15.6117C17.1646 15.6039 17.1568 15.5961 17.149 15.5883C17.1411 15.5805 17.1333 15.5727 17.1255 15.5648C17.1176 15.557 17.1098 15.5491 17.1019 15.5412C17.094 15.5333 17.0861 15.5254 17.0781 15.5175C17.0702 15.5096 17.0623 15.5016 17.0543 15.4936C17.0463 15.4857 17.0383 15.4777 17.0303 15.4697L15.9697 16.5303Z" fill="#878787"/>
</svg>
